<?xml version="1.0" encoding="utf-8"?>
<!-- Generator: Adobe Illustrator 18.1.1, SVG Export Plug-In . SVG Version: 6.00 Build 0)  -->
<svg version="1.1" id="Capa_1" xmlns="http://www.w3.org/2000/svg" xmlns:xlink="http://www.w3.org/1999/xlink" x="0px" y="0px"
	 viewBox="0 0 846.8 850.4" enable-background="new 0 0 846.8 850.4" xml:space="preserve">
<g>
	<path fill="#FFFFFF" d="M444.2,390.5c-27.9-13.5-55.2-20.3-55.2-42.4c0-19.9,11.7-25.9,30.1-25.9c13.2,0,24.5,4.9,35,13.2
		c7.9,6.8,17.2,11.2,28.2,11.2c20.6,0,35.6-19.4,35.6-38c0-13.9-7.1-25.9-20.3-35c-11.2-8.4-23.7-15-36.5-19.4v-17.7
		c0-17.2-13.9-31.1-31.1-31.1h-22.6c-17.2,0-31.1,13.9-31.1,31.1v19.4c-39.5,16.6-63.5,55.6-63.5,93.8c0,60.8,54.1,86.7,99.5,107.8
		c36.2,16.6,48.2,27,48.2,42.4c0,25.9-21.5,38.7-46.5,38.7c-14.4,0-27.4-1.7-43.3-13.2c-7.9-6.8-17.2-12.3-28.6-12.3
		c-20.6,0-35.6,19.4-35.6,38c0,13.5,6.8,24.5,19.3,34.1c13.9,10.5,34.6,19.6,50.7,24v13.5c0,17.2,13.9,31.1,31.1,31.1h22.6
		c17.2,0,31.1-13.9,31.1-31.1v-16.1c45.4-15.2,76.5-53.4,76.5-109C537.6,441.9,498.9,417,444.2,390.5L444.2,390.5z"/>
	<path fill="#FFFFFF" d="M422.4,5.6C188.9,5.6,0,194.5,0,428s188.9,422.4,422.4,422.4S844.8,661.5,844.8,428S655.9,5.6,422.4,5.6
		L422.4,5.6z M422.7,729.6c-166.4,0-301.4-134.8-301.4-301.4s134.8-301.4,301.4-301.4s301.4,134.8,301.4,301.4
		C724.1,594.6,589.1,729.6,422.7,729.6L422.7,729.6z"/>
</g>
</svg>
