<?xml version="1.0" encoding="utf-8"?>
<!-- Generator: Adobe Illustrator 18.1.1, SVG Export Plug-In . SVG Version: 6.00 Build 0)  -->
<svg version="1.1" id="Capa_1" xmlns="http://www.w3.org/2000/svg" xmlns:xlink="http://www.w3.org/1999/xlink" x="0px" y="0px"
	 viewBox="0 154.2 1026.9 696.2" enable-background="new 0 154.2 1026.9 696.2" xml:space="preserve">
<path fill="#FFFFFF" d="M292.7,157.3c5.3,0,10.6,0,16.1,0c3,0.5,6,0.9,9,1.4c25.3,4.4,46.4,16.5,64.8,34.2
	c20.2,19.5,34.5,43.2,45,69.1c2.3,5.5,4.1,11,6,16.1c50.3-39.1,100.4-39.1,150.9,0c0.2-0.5,0.5-1.1,0.7-1.8
	c4.1-9.6,8-19.8,12.9-29.2c12.2-23.7,27.8-44.6,49.4-60.4c35.4-25.7,73.3-31.2,113.5-12.9c23.2,10.6,41.1,27.8,55.8,48.2
	c25.5,36.1,38.4,77,43,120.4c2.8,24.6,2.3,49.2-0.9,73.5c-3.7,27.8-11,54.4-23.2,79.7c-1.4,3.2-3,6.2-4.6,9.4
	c1.1,0.5,1.8,0.9,2.8,1.4c36.5,18.4,72.6,37.9,106.8,60.2c22.3,14.5,44.1,29.6,62.7,48.9c13.3,13.6,23.4,29.2,28.3,47.8
	c0.9,3.4,1.4,6.9,2.1,10.1c0,3.2,0,6.7,0,9.9c-0.2,0.5-0.5,0.9-0.5,1.1c-1.8,16.8-10.1,29.9-22.7,40.7c-11.3,9.6-24.6,15.6-38.6,20
	c-19.8,6.2-40.2,8.5-60.9,8.5c-29.6,0-59.3,0-89.1,0c-1.1,0-2.3,0-3.9,0c0.5,1.6,0.9,2.5,1.1,3.4c4.1,11.7,5.7,23.4,3.2,35.6
	c-3.7,17.5-14,30.3-28.5,40c-18.8,12.9-40.4,18.6-62.7,21.6c-4.6,0.7-9.2,1.1-13.8,1.6c-130.3,0-260.5,0-391,0
	c-0.7-0.2-1.1-0.5-1.8-0.5c-11.9-0.9-23.4-2.5-34.9-5.5c-17.9-4.6-34.7-11.5-48.5-24.1c-15.9-14.5-23-32.4-20-53.8
	c0.7-5.1,2.1-9.9,3.4-15.2c-0.9,0-1.8,0-3,0c-32.4,0-64.6,0-96.9,0c-14,0-27.8-0.9-41.6-3.4c-17.9-3.2-34.9-8.5-50.3-18.1
	c-14.7-9.4-26-21.6-30.6-38.8c-0.7-2.8-1.4-5.7-2.1-8.5c0-4.1,0-8.5,0-12.6c0.7-3.2,1.1-6.2,2.1-9.2c4.6-17.9,14.2-32.6,26.6-45.9
	c12.9-13.6,27.3-25,42.5-35.6c30.1-21.4,62.3-40,94.9-57.4c8.7-4.8,17.7-9.2,26.6-14c-0.5-0.7-0.7-1.4-1.1-2.1
	c-4.8-9.4-10.3-18.4-14.5-28c-14.7-33.1-21.6-68-22.7-103.8c-1.1-35.1,3.2-69.6,14.5-103.1c10.8-32.2,26.6-61.3,51.7-85
	c16.5-15.6,35.4-26.6,57.7-31.7C282.8,158.9,287.8,158.2,292.7,157.3z M521.7,817.5c61.1,0,122.2,0,183.3,0
	c13.8,0,27.3-1.6,40.7-5.3c11.3-3,22.3-7.4,31-15.2c6.7-6,9.2-13.3,6.7-22.1c-3.2-11.5-9.9-20.9-18.1-29.2
	c-14-14.5-30.1-26.2-46.9-37.4c-40-26.9-82.5-49.4-125.7-70.8c-1.6-0.7-2.5-0.5-3.4,0.7c-1.6,1.8-3.7,3.4-5.5,5.1
	c-22.3,19.1-47.8,30.1-77.4,29.6c-24.8-0.5-46.6-9.2-66.2-24.1c-3.7-3-6.2-3-10.3-0.9c-33.5,17.5-66.6,35.4-98.3,56.1
	c-19.1,12.4-37.4,25.5-53.5,41.8c-8,8-14.5,17.2-17.7,28c-2.8,9-0.7,16.8,6.4,23.2c6.2,5.5,13.3,9.2,20.9,11.9
	c16.3,6,33.3,8.5,50.5,8.5C399.5,817.7,460.6,817.5,521.7,817.5z M400.6,461c0.7,10.1,1.1,20.4,2.3,30.6c3,27.8,10.3,54.4,23.2,79.3
	c9,17.5,20.2,33.1,35.6,45.3c12.4,9.9,26.4,16.5,42.5,17.7c19.1,1.1,35.6-5.3,50.3-16.8c16.8-13.1,28.9-30.1,38.1-49.2
	c16.5-33.8,23.2-69.8,23.4-107.1c0-17-1.6-33.8-4.8-50.3c-5.1-26-13.8-50.3-28-72.8c-9.9-15.6-22.1-29.2-38.1-38.8
	c-13.1-7.8-27.3-11.7-43-10.3c-14.9,1.4-28,7.6-39.7,16.8c-17.5,13.8-29.9,31.5-39.3,51.5C407.8,389.7,401.3,424.7,400.6,461z
	 M192.5,369.1c1.1,12.4,1.6,24.8,3.2,37c3.4,26.6,11,52.1,23.9,75.8c10.3,19.1,23.2,35.8,41.8,48c17,11.3,35.6,15.4,55.6,10.3
	c19.8-5.1,34.9-17.5,47.8-32.9c0.5-0.7,0.7-1.6,0.5-2.5c-4.1-29.4-4.1-58.8,0.2-88.2c5.3-35.8,16.5-69.8,36.1-100.6
	c0.5-0.9,0.9-2.3,0.7-3.2c-4.6-21.6-11.9-42-23.2-61.3c-9.9-17-22.1-31.9-38.6-42.7c-14.5-9.4-30.1-14-47.3-11.9
	c-14.7,1.8-27.3,8-38.8,17c-17.5,13.8-29.6,31.7-39.1,51.7C199.6,298.3,193.2,333,192.5,369.1z M822.2,375.5c0.2,0,0.5,0,0.7,0
	c-1.1-13.1-1.8-26.4-3.7-39.5c-3.4-26.2-11.3-51-23.9-74.2c-9.9-17.9-22.3-34-39.3-45.7c-21.6-14.7-44.8-18.1-69.1-7.4
	c-15.4,6.9-27.6,17.9-37.9,30.8c-17,21.4-27.1,45.9-34,72.1c-0.2,1.1,0,2.5,0.7,3.7c17.2,26.9,28,56.3,34,87.5
	c3.9,19.3,5.5,38.8,5.5,58.6c0,16.5-1.1,32.9-3.9,49.2c-0.5,2.1-0.2,3.9,1.6,5.5c6.7,6,12.6,12.6,19.8,17.9
	c12.9,9.6,27.3,14.9,43.6,14.5c18.1-0.5,33.5-7.8,47.3-19.3c16.5-13.8,28.3-31.2,37.2-50.5C815.7,445.8,821.9,411.3,822.2,375.5z
	 M375.8,551.7c-4.8,3.4-9.4,7.1-14.2,10.3c-27.3,17.9-57,23.7-88.9,15.4c-20.7-5.5-38.1-16.5-53.3-31.2c-1.6-1.4-2.5-1.4-4.4-0.5
	c-4.1,2.3-8.5,4.4-12.6,6.4c-33.5,17.5-66.8,35.8-98.3,57c-16.3,11-31.9,22.5-45.9,36.5c-8.3,8.3-15.2,17.7-18.4,29.2
	c-2.5,8.3-0.9,15.9,5.7,21.6c4.6,3.9,9.9,7.6,15.4,10.3c15.9,7.6,32.9,10.8,50.3,11c45.9,0.5,91.7,0.2,137.6,0.2
	c0.9,0,2.1-0.7,2.8-1.4c12.6-12.6,26.6-23.7,41.3-33.8c31.5-22.1,64.8-41.1,98.6-59c5.3-2.8,10.8-5.5,16.1-8.5
	C393.5,595.8,383.4,574.4,375.8,551.7z M616.1,605.4c1.4,0.7,2.3,1.1,3.2,1.6c37.4,18.6,74.2,38.6,109.6,61.1
	c20.7,13.3,40.9,27.6,58.8,44.3c1.8,1.6,3.4,2.5,6,2.5c39.1,0,78.1,0,117.2,0c13.3,0,26.9-1.1,40-4.4c12.2-3,23.9-6.9,34-14.9
	c8.7-7.1,11.3-14.9,7.8-25.7c-3-9.2-8.3-17.2-14.7-24.4c-12.9-13.8-27.8-25.3-43.2-35.8c-28.7-20-59.3-37.2-90.1-53.5
	c-11.7-6.2-23.7-12.2-35.4-18.4c-1.1,1.4-2.1,2.3-3,3.4c-9.4,10.6-19.8,20.2-31.9,27.8c-21.1,13.3-43.9,19.5-68.9,17.5
	c-23-2.1-43-11.3-60.9-25.3c-1.6-1.1-3.2-2.5-4.8-3.9C633.1,574.4,625.8,590.5,616.1,605.4z"/>
</svg>
