<?xml version="1.0" encoding="utf-8"?>
<!-- Generator: Adobe Illustrator 18.1.1, SVG Export Plug-In . SVG Version: 6.00 Build 0)  -->
<svg version="1.1" id="Capa_1" xmlns="http://www.w3.org/2000/svg" xmlns:xlink="http://www.w3.org/1999/xlink" x="0px" y="0px"
	 viewBox="-61 153.2 487.8 487.8" enable-background="new -61 153.2 487.8 487.8" xml:space="preserve">
<g>
	<path fill="#FFFFFF" d="M183.9,161.6c-127.3,0-230.6,103.2-230.6,230.6S56.6,622.8,183.9,622.8s230.6-103.2,230.6-230.6
		S311.2,161.6,183.9,161.6z M325.5,511L302,487.5c-6.4-6.4-16.9-6.4-23.2,0c-6.4,6.4-6.4,16.9,0,23.2l23.4,23.4
		c-28.1,23.5-63.3,38.6-101.9,42v-32.8c0-9-7.4-16.4-16.4-16.4s-16.4,7.4-16.4,16.4v32.8c-38.8-3.4-74.1-18.8-102.3-42.4l23-23
		c6.4-6.4,6.4-16.9,0-23.2c-6.4-6.4-16.9-6.4-23.2,0l-23,23c-23.5-28.1-38.6-63.3-42-101.9h32.8c9,0,16.4-7.4,16.4-16.4
		s-7.4-16.4-16.4-16.4H-0.1c3.4-38.6,18.6-73.8,42-101.9l23,23c6.4,6.4,16.9,6.4,23.2,0c6.4-6.4,6.4-16.9,0-23.2l-23-23
		c28.2-23.7,63.5-39,102.3-42.4V241c0,9,7.4,16.4,16.4,16.4s16.4-7.4,16.4-16.4v-32.8c38.6,3.4,73.8,18.6,101.9,42l-23.4,23.4
		c-6.4,6.4-6.4,16.9,0,23.2c6.4,6.4,16.9,6.4,23.2,0l23.4-23.4c23.7,28.2,39,63.5,42.4,102.3h-32.8c-9,0-16.4,7.4-16.4,16.4
		s7.4,16.4,16.4,16.4h32.8C364.5,447.4,349.2,482.8,325.5,511z"/>
	<path fill="#FFFFFF" d="M239.8,313.1L205,347.8c-6.4-3.1-13.5-4.9-21.1-4.9c-27.2,0-49.3,22.1-49.3,49.3s22.1,49.3,49.3,49.3
		c27.2,0,49.3-22.1,49.3-49.3c0-7.6-1.9-14.7-4.9-21.1l34.8-34.8c6.4-6.4,6.4-16.9,0-23.2C256.7,306.7,246.2,306.7,239.8,313.1z
		 M183.9,410.1c-9.9,0-17.9-8-17.9-17.9s8-17.9,17.9-17.9s17.9,8,17.9,17.9S193.8,410.1,183.9,410.1z"/>
</g>
</svg>
