<?xml version="1.0" encoding="utf-8"?>
<!-- Generator: Adobe Illustrator 18.1.1, SVG Export Plug-In . SVG Version: 6.00 Build 0)  -->
<svg version="1.1" id="Capa_1" xmlns="http://www.w3.org/2000/svg" xmlns:xlink="http://www.w3.org/1999/xlink" x="0px" y="0px"
	 viewBox="0 0 327.3 343.6" enable-background="new 0 0 327.3 343.6" xml:space="preserve">
<path fill="#FFFFFF" d="M327.3,40.2c0-19.2-15.6-34.8-34.8-34.8s-34.8,15.6-34.8,34.8c0,10.5,4.7,19.7,12,26.1l-50.2,138.5
	c-0.9-0.1-1.7-0.3-2.6-0.3c-5.9,0-11.3,1.6-16.2,4.2L151.5,162c0.4-2.1,0.7-4.3,0.7-6.5c0-19.2-15.6-34.8-34.8-34.8
	s-34.8,15.6-34.8,34.8c0,7.8,2.6,14.8,6.9,20.6l-48.6,93.1c-0.9-0.1-1.8-0.3-2.7-0.3C19,269,3.4,284.6,3.4,303.8
	c0,19.2,15.6,34.8,34.8,34.8S73,323,73,303.8c0-8.6-3.2-16.3-8.4-22.4l47.8-91.5c1.6,0.2,3.3,0.5,5,0.5c7.1,0,13.7-2.1,19.2-5.8
	l47.2,44.7c-1,3.2-1.6,6.5-1.6,10c0,19.2,15.6,34.8,34.8,34.8s34.8-15.6,34.8-34.8c0-8.5-3.2-16.3-8.3-22.3L295,74.7
	C313,73.4,327.3,58.5,327.3,40.2z"/>
</svg>
