<?xml version="1.0" encoding="utf-8"?>
<!-- Generator: Adobe Illustrator 16.0.0, SVG Export Plug-In . SVG Version: 6.00 Build 0)  -->
<!DOCTYPE svg PUBLIC "-//W3C//DTD SVG 1.1//EN" "http://www.w3.org/Graphics/SVG/1.1/DTD/svg11.dtd">
<svg version="1.1" id="Layer_1" xmlns="http://www.w3.org/2000/svg" xmlns:xlink="http://www.w3.org/1999/xlink" x="0px" y="0px"
	 width="3344.88px" height="1247.24px" viewBox="0 0 3344.88 1247.24" enable-background="new 0 0 3344.88 1247.24"
	 xml:space="preserve">
<g>
	<path fill="#FFFFFF" d="M1549.207,658.224c3.625,23.328,11.234,45.016,22.844,65.062c11.594,20.047,25.922,37.359,42.969,51.938
		s36.453,26.062,58.219,34.438c21.75,8.375,44.609,12.562,68.547,12.562c26.828,0,51.844-4.891,75.062-14.688
		c23.203-9.781,43.875-23.391,62.016-40.797c6.531-6.531,14.5-9.797,23.938-9.797c9.422,0,17.406,3.266,23.938,9.797
		s9.797,14.5,9.797,23.938s-3.266,17.406-9.797,23.922c-23.938,26.719-50.969,45.672-81.062,56.859s-64.734,16.766-103.891,16.766
		c-36.281,0-70.188-6.531-101.735-19.594c-31.562-13.062-59.297-31.219-83.234-54.453s-42.797-50.828-56.578-82.766
		s-20.672-66.797-20.672-104.547c0-36.297,6.703-70.234,20.125-101.828c13.422-31.578,31.922-59.172,55.5-82.766
		c23.562-23.594,51.484-42.469,83.766-56.625s67.282-21.969,105-23.422c34.812,0,67.625,6.906,98.453,20.688
		s58.219,32.281,82.156,55.5s42.969,50.422,57.109,81.609c14.141,31.203,21.938,64.578,23.406,100.109
		c1.438,12.344-1.641,21.766-9.25,28.297c-7.625,6.531-15.781,9.797-24.484,9.797H1549.207z M1741.785,431.224
		c-23.938,0-46.609,4.172-68.016,12.516c-21.407,8.344-40.625,19.594-57.657,33.75c-17.047,14.156-31.188,31.016-42.438,50.609
		s-19.047,40.641-23.391,63.125h384.063c-4.344-22.484-12.328-43.531-23.938-63.125s-25.938-36.453-42.969-50.609
		c-17.047-14.156-36.266-25.406-57.672-33.75S1765.707,431.224,1741.785,431.224z"/>
	<path fill="#FFFFFF" d="M2266.516,855.724c0,9.375-3.266,17.297-9.797,23.781s-14.516,9.719-23.938,9.719
		c-33.375-0.719-61.281-7.25-83.75-19.594s-40.734-27.578-54.781-45.734c-14.047-18.141-24.125-37.375-30.25-57.703
		c-6.125-20.312-9.188-38.469-9.188-54.438V223.974c0-9.438,3.234-17.422,9.719-23.953s14.406-9.797,23.781-9.797
		c9.359,0,17.281,3.281,23.766,9.812s9.734,14.531,9.734,23.969v488.156c0,5.812,1.266,14.531,3.797,26.156
		s7.797,23.625,15.781,35.969c7.969,12.344,19.219,23.25,33.719,32.688s33.734,14.531,57.672,15.25
		c9.422,0,17.406,3.25,23.938,9.734S2266.516,846.364,2266.516,855.724z"/>
	<path fill="#FFFFFF" d="M2308.25,394.177c0-9.422,3.234-17.391,9.719-23.922s14.406-9.797,23.781-9.797
		c9.359,0,17.281,3.266,23.766,9.797s9.734,14.5,9.734,23.922v461.312c0,9.438-3.25,17.422-9.734,23.953s-14.406,9.781-23.766,9.781
		c-9.375,0-17.297-3.25-23.781-9.781s-9.719-14.516-9.719-23.953V394.177z"/>
</g>
<path fill="#FFFFFF" d="M2840.635,687.322c-7.617-17.768-17.954-33.188-31.013-46.247c-13.058-13.058-28.479-23.395-46.246-31.012
	c-17.783-7.616-36.452-11.425-56.038-11.425h-127.312c-23.226,0-43.169-8.33-59.847-25.027
	c-16.697-16.68-25.027-36.622-25.027-59.847c0-23.209,8.33-43.151,25.027-59.848c16.678-16.68,36.621-25.385,59.847-26.116h168.465
	c5.45-1.612,5.866-1.401,8.396-2.95c0.801-0.49,4.076-2.644,4.815-3.211c0.63-1.101,3.757-3.133,6.336-8.372
	c3.89-5.553,5.858-11.961,5.858-19.233c0-9.437-3.265-17.411-9.792-23.939c-0.903-0.903-1.841-1.729-2.8-2.507
	c-0.475-0.506-0.967-1.038-1.476-1.616c0,0-2.141-2.142-5.085-3.747c-0.266-0.145-1.07-1.07-5.082-1.89h-8.719
	c-0.263-0.005-0.514-0.034-0.778-0.034h-58.476c0,0.011,0,0.023,0,0.034h-101.663c-21.049,0-40.806,3.996-59.304,11.97
	c-18.498,7.992-34.649,18.873-48.421,32.645c-13.79,13.79-24.671,30.111-32.645,48.966c-7.99,18.872-11.97,38.816-11.97,59.848
	c0,21.047,3.979,40.805,11.97,59.302c7.974,18.5,18.854,34.651,32.645,48.423c13.771,13.788,29.923,24.67,48.421,32.644
	c18.498,7.99,38.255,11.97,59.304,11.97h127.312c21.031,0,39.173,7.616,54.406,22.852c15.234,15.234,22.851,33.375,22.851,54.405
	c0,21.05-7.616,39.175-22.851,54.406c-15.233,15.235-33.375,22.853-54.406,22.853H2541.31c0.006-0.274,0.013-0.547,0.018-0.82
	h-59.867c-2.668,0-5.208,0.292-7.645,0.814c-6.17,1.326-11.614,4.299-16.295,8.979c-6.529,6.529-9.793,14.52-9.793,23.938
	c0,5.488,1.139,10.466,3.347,14.968c6.471,16.646,21.991,19.584,21.991,19.584c0.17,0.076,0.135,0.043,0.064,0h234.208
	c19.586,0,38.255-3.807,56.038-11.424c17.768-7.618,33.188-17.955,46.246-31.012c13.059-13.058,23.396-28.463,31.013-46.247
	c7.616-17.768,11.425-36.452,11.425-56.039C2852.06,723.775,2848.251,705.105,2840.635,687.322z"/>
<path fill="#C1343F" d="M2421.712,233.295c0,44.368-35.973,80.337-80.339,80.337c-44.369,0-80.339-35.97-80.339-80.337
	c0-44.369,35.97-80.339,80.339-80.339C2385.739,152.957,2421.712,188.926,2421.712,233.295z"/>
<path fill="#FFFFFF" d="M1494.84,833.228l-204.569-205.658l203.482-205.658c6.528-7.243,9.963-15.402,10.337-24.481
	c0.357-9.063-2.72-16.867-9.25-23.396c-7.259-6.529-15.42-9.963-24.482-10.337c-9.079-0.356-16.867,2.721-23.396,9.249
	l-203.48,206.747L1040,372.945c-6.528-6.527-14.333-9.605-23.396-9.249c-9.079,0.375-17.24,3.809-24.482,10.337
	c-6.53,6.529-9.625,14.333-9.25,23.396c0.357,9.079,3.809,17.239,10.337,24.481l201.885,205.143l-62.776,60.239
	c-0.249,0.238-0.493,0.481-0.734,0.728C1023.018,798.937,818.17,850.547,684.264,800.722
	c-69.703-25.937-111.912-75.047-125.902-146.2h420.567c8.93,0,17.478-3.619,23.693-10.03c6.216-6.411,9.567-15.067,9.291-23.993
	c-0.08-2.592-2.336-64.198-34.254-126.315c-30.524-59.405-93.927-130.386-222.637-131.181c-0.068,0-0.147,0-0.215,0
	c-2.592,0-64.189,0.362-127.021,31.856c-57.422,28.783-127.009,89.117-137.691,213.676c-1.693,4.333-2.5,9.092-2.191,14.041
	c3.769,60.476,21.909,112.342,53.915,154.159c29.403,38.415,69.584,67.298,119.428,85.845c41.441,15.42,88.513,23.158,138.49,23.157
	c43.273-0.002,88.727-5.805,134.552-17.447c96.965-24.636,183.626-72.115,244.093-133.726l63.388-60.826l1.712,1.712l203.48,204.568
	c6.528,7.261,14.316,10.882,23.396,10.882c9.062,0,17.223-3.265,24.482-9.793c6.53-6.529,9.793-14.315,9.793-23.395
	C1504.634,848.649,1501.37,840.487,1494.84,833.228z M655.997,454.55c48.167-24.586,96.655-25.521,98.795-25.549
	c75.942,0.519,130.862,31.991,163.229,93.546c12.371,23.527,19.297,47.43,23.156,65.974H559.258
	C570.605,526.56,603.043,481.58,655.997,454.55z"/>
<text transform="matrix(1 0 0 1 688.4834 1062.2324)" fill="#FFFFFF" font-family="'HelveticaNeue-Thin'" font-size="177.5974" letter-spacing="79">BUSINESS HUB</text>
</svg>
