<?xml version="1.0" encoding="utf-8"?>
<!-- Generator: Adobe Illustrator 18.1.1, SVG Export Plug-In . SVG Version: 6.00 Build 0)  -->
<svg version="1.1" id="Capa_1" xmlns="http://www.w3.org/2000/svg" xmlns:xlink="http://www.w3.org/1999/xlink" x="0px" y="0px"
	 viewBox="-285 377.9 39.1 39.1" enable-background="new -285 377.9 39.1 39.1" xml:space="preserve">
<g>
	<g>
		<path fill="#FFFFFF" d="M-246.2,392.2c-0.2-0.2-0.5-0.4-0.8-0.4h-3.8c-0.9-2.5-2.2-4.9-3.5-5.8c-4.8-3.2-17.5-3.2-22.4,0
			c-1.4,0.9-2.6,3.3-3.6,5.8h-3.8c-0.3,0-0.6,0.1-0.8,0.4c-0.2,0.2-0.3,0.5-0.2,0.8l0.6,2.7c0.1,0.5,0.5,0.8,1,0.8h1.1
			c-1.1,1.3-1.6,2.8-1.6,4.4c0,2,0.7,3.7,2.1,5c0,0,0,0,0,0v3.8c0,0.8,0.7,1.5,1.5,1.5h3.5c0.8,0,1.5-0.7,1.5-1.5v-1.5h19.6v1.5
			c0,0.8,0.7,1.5,1.5,1.5h3.5c0.8,0,1.5-0.7,1.5-1.5v-3.7c1.4-1.3,2.1-3.1,2.1-4.9c0-1.6-0.5-3.3-1.7-4.6h1.2c0.5,0,0.9-0.3,1-0.8
			l0.6-2.7C-245.9,392.7-246,392.4-246.2,392.2z M-275,388.5c3.8-2.5,15.2-2.5,19.1,0c0.7,0.5,1.7,2.5,2.6,4.9h-24.2
			C-276.7,391-275.7,389-275,388.5z M-279.5,401.4c0-1.6,1.3-2.9,3-2.9c1.6,0,3,1.3,3,2.9c0,1.6-1.3,3-3,3
			C-278.2,404.3-279.5,403-279.5,401.4z M-254.4,404.3c-1.6,0-3-1.3-3-3s1.3-2.9,3-2.9c1.6,0,3,1.3,3,2.9S-252.7,404.3-254.4,404.3z
			"/>
	</g>
</g>
</svg>
