<?xml version="1.0" encoding="utf-8"?>
<!-- Generator: Adobe Illustrator 18.1.1, SVG Export Plug-In . SVG Version: 6.00 Build 0)  -->
<svg version="1.1" id="Capa_1" xmlns="http://www.w3.org/2000/svg" xmlns:xlink="http://www.w3.org/1999/xlink" x="0px" y="0px"
	 viewBox="0 0 852.8 850.4" enable-background="new 0 0 852.8 850.4" xml:space="preserve">
<g>
	<g>
		<path fill="#FFFFFF" d="M146.7,830.5h595.8c4.4,0,8.9-1,12.9-2.9c4-1.9,95-47.2,95-138.3V223.9c0-16.4-13.5-29.9-29.9-29.9H716.2
			v-59.7V49.7c0-16.4-13.5-29.9-29.9-29.9H29.9C13.5,19.9,0,33.3,0,49.7v633.1c0,1.9,0,4.4,0.6,6.5
			C1.9,695.2,33.3,830.5,146.7,830.5z M59.6,79.6h596.8v54.7v89.5v417.7c0,16.4,13.5,29.9,29.9,29.9c16.4,0,29.9-13.5,29.9-29.9
			v-388h74.6v435.6c0,43.8-40.7,72.7-56.1,81.6H146.9c-58.6,0-82.5-76.1-87-92C59.6,678.8,59.6,79.6,59.6,79.6z"/>
		<path fill="#FFFFFF" d="M348.1,208.8c0-16.4-13.5-29.9-29.9-29.9H179c-16.4,0-29.9,13.5-29.9,29.9v159.1
			c0,16.4,13.5,29.9,29.9,29.9h139.2c16.4,0,29.9-13.5,29.9-29.9V208.8L348.1,208.8z M208.8,238.7h79.6v99.5h-79.6V238.7z"/>
		<path fill="#FFFFFF" d="M169.1,676.3h388c16.4,0,29.9-13.5,29.9-29.9c0-16.4-13.5-29.9-29.9-29.9h-388
			c-16.4,0-29.9,13.5-29.9,29.9C139.2,662.9,152.7,676.3,169.1,676.3z"/>
		<path fill="#FFFFFF" d="M174.1,532h378c16.4,0,29.9-13.5,29.9-29.9s-13.5-29.9-29.9-29.9h-378c-16.4,0-29.9,13.5-29.9,29.9
			C144.2,518.7,157.7,532,174.1,532z"/>
		<path fill="#FFFFFF" d="M442.6,243.7h114.4c16.4,0,29.9-13.5,29.9-29.9S573.3,184,556.9,184H442.6c-16.4,0-29.9,13.5-29.9,29.9
			C412.8,230.2,426.2,243.7,442.6,243.7z"/>
		<path fill="#FFFFFF" d="M442.6,388h114.4c16.4,0,29.9-13.5,29.9-29.9s-13.5-29.9-29.9-29.9H442.6c-16.4,0-29.9,13.5-29.9,29.9
			C412.8,374.5,426.2,388,442.6,388z"/>
	</g>
</g>
</svg>
