<?xml version="1.0" encoding="utf-8"?>
<!-- Generator: Adobe Illustrator 18.1.1, SVG Export Plug-In . SVG Version: 6.00 Build 0)  -->
<svg version="1.1" id="Capa_1" xmlns="http://www.w3.org/2000/svg" xmlns:xlink="http://www.w3.org/1999/xlink" x="0px" y="0px"
	 viewBox="-61 153.2 487.8 487.8" enable-background="new -61 153.2 487.8 487.8" xml:space="preserve">
<g>
	<g id="_x33_6_24_">
		<g>
			<path fill="#FFFFFF" d="M89.5,262.7H240c4,0,7.2-3.2,7.2-7.2s-3.2-7.2-7.2-7.2H89.5c-4,0-7.2,3.2-7.2,7.2S85.5,262.7,89.5,262.7z
				"/>
			<path fill="#FFFFFF" d="M-45.1,332.7h150.5c4,0,7.2-3.2,7.2-7.2s-3.2-7.2-7.2-7.2H-45.1c-4,0-7.2,3.2-7.2,7.2
				S-49.1,332.7-45.1,332.7z"/>
			<path fill="#FFFFFF" d="M-4.7,406.4c0,4,3.2,7.2,7.2,7.2h150.5c4,0,7.2-3.2,7.2-7.2c0-4-3.2-7.2-7.2-7.2H2.4
				C-1.5,399.2-4.7,402.4-4.7,406.4z"/>
			<path fill="#FFFFFF" d="M81.4,489.6H-53.8c-4,0-7.2,3.2-7.2,7.2s3.2,7.2,7.2,7.2H81.4c4,0,7.2-3.2,7.2-7.2S85.4,489.6,81.4,489.6
				z"/>
			<path fill="#FFFFFF" d="M324.7,307.6c21.6,0,39.1-17.5,39.1-39.1c0-21.6-17.5-39.1-39.1-39.1c-21.6,0-39.1,17.5-39.1,39.1
				C285.6,290.1,303.1,307.6,324.7,307.6z"/>
			<path fill="#FFFFFF" d="M389.1,296.3c-22.5,31.5-52.5,35.1-84.9,15.9c-2.2-1.3-12-6.7-14.1-8c-52.1-30.9-104.1-18.8-138.9,30
				c-14.8,20.8,19.5,40.5,34.1,19.9c18-25.2,40.9-32.5,66-24.5c-12.8,22.3-24,44.4-39.9,75.9c-15.8,31.4-50.8,56.6-84.4,36.9
				c-24.2-14.2-46.1,20.7-21.9,34.8c45.9,26.8,99.6,10.3,127.1-24.5c1,0.5,2,1,3.1,1.4c22.4,7.8,51.8,28.6,60.8,36
				c9,7.4,24.3,44.9,33.5,63.8c11.1,22.9,46.9,6.2,35.7-16.8c-10.4-21.4-27.7-64.1-41.3-74.9c-10.9-8.7-32-24.8-49.9-34
				c12.1-23.5,24.7-46.7,38-69.5c42.3,13,82.6-2.3,111.2-42.4C438,295.5,403.7,275.8,389.1,296.3z"/>
		</g>
	</g>
</g>
</svg>
