<?xml version="1.0" standalone="no"?>
<!DOCTYPE svg PUBLIC "-//W3C//DTD SVG 20010904//EN"
 "http://www.w3.org/TR/2001/REC-SVG-20010904/DTD/svg10.dtd">
<svg version="1.0" xmlns="http://www.w3.org/2000/svg"
 width="1272.000000pt" height="1280.000000pt" viewBox="0 0 1272.000000 1280.000000"
 preserveAspectRatio="xMidYMid meet">
<metadata>
Created by potrace 1.14, written by Peter Selinger 2001-2017
</metadata>
<g transform="translate(0.000000,1280.000000) scale(0.100000,-0.100000)"
fill="#000000" stroke="none">
<path d="M6023 12790 c-850 -59 -1686 -306 -2409 -711 -111 -62 -163 -85 -240
-105 -268 -70 -722 -218 -1084 -354 -187 -70 -227 -98 -216 -153 14 -71 50
-82 179 -55 103 21 491 88 494 84 1 -1 -53 -50 -120 -108 -146 -127 -419 -402
-543 -548 -546 -641 -927 -1358 -1165 -2189 -27 -96 -50 -176 -52 -177 -1 -1
-43 -22 -93 -46 -135 -67 -208 -120 -319 -232 -153 -154 -261 -335 -338 -566
-81 -242 -112 -468 -112 -800 1 -335 32 -592 116 -963 204 -900 548 -1590
1074 -2147 121 -129 342 -330 423 -386 4 -2 10 -118 62 -1069 91 -1667 88
-1618 110 -1677 11 -31 39 -77 62 -103 37 -42 43 -56 50 -114 15 -124 103
-253 216 -314 98 -53 133 -57 544 -57 l378 0 0 50 0 50 3315 0 3315 0 0 -50 0
-50 363 0 c393 0 432 4 528 56 87 48 165 140 198 235 12 33 34 63 74 99 64 58
111 144 127 230 6 30 44 656 84 1389 l74 1335 28 24 c396 330 691 676 926
1087 313 547 551 1310 629 2015 18 156 18 577 0 710 -43 336 -137 613 -283
835 -63 96 -228 265 -317 325 -35 24 -104 63 -152 87 -48 24 -90 51 -93 61 -3
9 -21 76 -41 147 -268 972 -787 1856 -1494 2548 -88 86 -156 157 -151 157 5 0
64 -11 130 -25 67 -15 130 -23 140 -20 27 9 60 53 60 81 0 31 -42 78 -82 91
-18 6 -91 33 -163 61 -71 27 -235 86 -363 131 -201 70 -245 89 -320 140 -232
155 -393 250 -632 372 -639 328 -1323 529 -2060 604 -181 19 -679 27 -857 15z
m-1053 -674 c92 -63 315 -283 397 -391 98 -130 216 -323 192 -312 -8 3 -64 28
-124 56 -459 207 -1086 300 -1825 271 -157 -6 -342 -17 -412 -23 -70 -7 -124
-10 -120 -6 4 4 88 30 187 58 653 184 1058 231 1307 151 193 -61 278 -27 278
112 0 47 -10 79 -57 186 -7 15 72 -30 177 -102z m2788 -48 c-35 -71 -47 -161
-28 -208 32 -77 117 -92 255 -45 120 41 238 51 413 37 271 -23 561 -82 951
-196 152 -45 199 -63 131 -52 -76 13 -278 26 -530 36 -386 15 -761 -6 -1090
-61 -277 -46 -611 -148 -803 -246 -27 -13 -50 -23 -52 -21 -5 6 109 187 180
285 78 108 276 314 372 386 64 49 213 145 225 146 4 1 -7 -27 -24 -61z m-2633
-738 c443 -93 818 -352 1114 -769 l93 -131 81 114 c109 153 183 240 287 340
80 75 116 103 265 204 149 101 461 225 635 253 137 22 421 17 550 -10 522
-110 966 -457 1243 -971 201 -372 302 -851 269 -1277 -44 -572 -244 -1044
-600 -1414 -185 -192 -369 -323 -582 -413 -217 -92 -392 -129 -620 -130 -279
-1 -496 51 -747 178 -135 68 -127 56 -102 155 40 159 -1 273 -155 427 -125
124 -262 209 -400 249 -91 27 -246 17 -353 -22 -253 -92 -476 -314 -501 -501
-9 -65 3 -129 37 -208 l19 -43 -72 -40 c-338 -185 -733 -243 -1106 -161 -655
142 -1202 710 -1399 1450 -71 267 -98 587 -72 862 72 765 505 1436 1116 1728
161 77 322 123 540 154 76 11 363 -4 460 -24z m1357 -3388 c148 -67 300 -199
349 -300 41 -83 14 -195 -105 -437 -87 -175 -195 -357 -208 -348 -7 3 -8 1 -4
-6 8 -12 -86 -150 -134 -196 l-28 -27 -71 84 c-221 258 -511 744 -511 855 0
137 215 338 425 398 31 9 83 13 135 11 70 -2 97 -8 152 -34z m644 -1066 c176
-50 299 -98 469 -184 159 -80 345 -200 472 -304 l78 -63 -869 -3 c-477 -1
-1254 -1 -1727 0 l-860 3 93 74 c242 194 526 348 828 448 104 34 279 75 295
69 7 -2 33 -33 56 -68 70 -104 203 -270 256 -319 114 -107 176 -105 285 7 71
73 130 153 219 299 l69 112 108 -18 c59 -11 161 -35 228 -53z m3719 -737 c115
-21 202 -89 229 -178 14 -48 5 -226 -129 -2658 -80 -1435 -150 -2631 -155
-2660 -14 -66 -56 -124 -117 -160 l-48 -28 -4185 -3 c-3016 -2 -4198 0 -4230
8 -112 28 -233 114 -261 188 -6 15 -26 308 -45 652 -19 344 -52 958 -74 1365
-101 1846 -122 2229 -145 2659 -33 594 -33 611 -7 663 40 78 117 133 213 152
68 14 8882 13 8954 0z m-8639 -5854 c52 -11 144 -15 367 -15 l297 0 0 -51 0
-50 -307 3 c-294 3 -310 4 -349 25 -36 19 -114 94 -114 109 0 3 8 3 19 -1 10
-3 49 -12 87 -20z m8319 -45 c-16 -16 -53 -39 -82 -50 -49 -18 -78 -20 -328
-20 l-275 0 0 50 0 50 357 0 357 0 -29 -30z"/>
<path d="M5565 9330 c-209 -34 -383 -165 -474 -355 -50 -104 -62 -158 -62
-275 1 -307 211 -562 512 -621 76 -15 239 -7 304 16 111 38 180 79 256 155
130 128 189 269 190 450 0 117 -12 171 -62 275 -79 166 -204 273 -387 334 -71
23 -204 33 -277 21z m-25 -320 c88 -62 77 -190 -20 -241 -45 -25 -76 -24 -124
4 -68 39 -93 114 -60 183 38 80 133 105 204 54z"/>
<path d="M6964 9331 c-133 -21 -287 -101 -369 -192 -61 -68 -114 -158 -142
-243 -21 -67 -26 -100 -27 -191 -1 -186 53 -315 189 -450 126 -127 265 -185
441 -185 113 0 173 14 282 66 216 104 352 325 352 568 -1 96 -11 148 -47 236
-37 91 -91 168 -165 235 -66 59 -187 124 -268 143 -66 16 -187 22 -246 13z
m-30 -321 c95 -58 81 -197 -23 -244 -50 -23 -100 -15 -142 22 -78 70 -62 186
32 235 40 21 85 17 133 -13z"/>
<path d="M6520 7388 l0 -523 39 60 c143 224 281 537 281 637 0 97 -137 252
-297 337 l-23 12 0 -523z"/>
</g>
</svg>
