<svg xmlns="http://www.w3.org/2000/svg" viewBox="0 0 111.78 33.2"><defs><style>.cls-1{fill:#231f20;}.cls-2{fill:none;}.cls-3{fill:#c12c26;}</style></defs><title>Asset 5</title><g id="Layer_2" data-name="Layer 2"><g id="Layer_1-2" data-name="Layer 1"><rect class="cls-1" x="76.71" y="8.21" width="2.35" height="16.63" rx="1.17" ry="1.17"/><path class="cls-1" d="M92.32,17.45a7.31,7.31,0,0,0-3.68-1.8l-2.44-.56a7.08,7.08,0,0,1-2.38-.91,1.92,1.92,0,0,1-1-1.66,2.51,2.51,0,0,1,.08-.57,2,2,0,0,1,.81-1.22,2.4,2.4,0,0,1,1.45-.44h6.24a1,1,0,0,0,1-1h0a1,1,0,0,0-1-1H85.12a4.71,4.71,0,0,0-3,1,3.94,3.94,0,0,0-1.59,3.16,4,4,0,0,0,1.22,3.09A7.62,7.62,0,0,0,85.22,17l1.69.42a20.18,20.18,0,0,1,2.34.7c1.31.52,2,1.24,2.1,2.14v.29a1.8,1.8,0,0,1-1,1.66,4.25,4.25,0,0,1-2.19.51H81.61a1,1,0,0,0-1,1h0a1,1,0,0,0,1,1h7.22a5,5,0,0,0,3.28-1.16,3.78,3.78,0,0,0,1.44-3A4.47,4.47,0,0,0,92.32,17.45Z"/><path class="cls-1" d="M25.1,8A8.45,8.45,0,0,0,19,10.44a8.13,8.13,0,0,0-2.54,6,8.23,8.23,0,0,0,2.46,6,8.4,8.4,0,0,0,5.92,2.5,8.57,8.57,0,0,0,6.07-2.4c.1-.1.2-.19.3-.3v1.54a1.12,1.12,0,0,0,1.12,1.12h0a1.12,1.12,0,0,0,1.12-1.12V17c0-.1,0-.2,0-.3A8.58,8.58,0,0,0,31,10.55,8,8,0,0,0,25.1,8ZM25,10.13A6,6,0,0,1,29.39,12a6.16,6.16,0,0,1,1.83,4.45,6.05,6.05,0,0,1-1.93,4.49,6.35,6.35,0,0,1-4.57,1.88A5.47,5.47,0,0,1,20.51,21a6.38,6.38,0,0,1-1.73-4.45A6.29,6.29,0,0,1,20.59,12,5.84,5.84,0,0,1,25,10.13Z"/><path class="cls-1" d="M50.72.45h0a1.13,1.13,0,0,0-1.13,1.12v9.18l-.18-.2A8,8,0,0,0,43.47,8a8.45,8.45,0,0,0-6.07,2.47,8.13,8.13,0,0,0-2.54,6,8.23,8.23,0,0,0,2.46,6,8.4,8.4,0,0,0,5.92,2.5,8.57,8.57,0,0,0,6.07-2.4,7.74,7.74,0,0,0,2.56-5.83q0-.4,0-.81V1.57A1.12,1.12,0,0,0,50.72.45Zm-1.14,16a6,6,0,0,1-1.92,4.49,6.35,6.35,0,0,1-4.58,1.88A5.45,5.45,0,0,1,38.88,21a6.38,6.38,0,0,1-1.73-4.45A6.29,6.29,0,0,1,39,12a5.84,5.84,0,0,1,4.39-1.87A6,6,0,0,1,47.76,12,6.15,6.15,0,0,1,49.58,16.44Z"/><path class="cls-1" d="M73.91,8.17a1,1,0,0,0-1,1V19.52a4.31,4.31,0,0,1-.51,2.2,1.81,1.81,0,0,1-1.66,1h-.25a2.44,2.44,0,0,1-1.87-1.44L66,15.9a2.71,2.71,0,0,0-.39-.52,2.13,2.13,0,0,0-.57-.4,1.53,1.53,0,0,0-.25-.11,1.44,1.44,0,0,0-.38-.06,1.59,1.59,0,0,0-.88.14,2,2,0,0,0-.44.28,2.8,2.8,0,0,0-.8,1L60.21,20.7l-.12.2c-.52,1.12-1.18,1.71-2,1.8h-.3a1.81,1.81,0,0,1-1.66-1,4.25,4.25,0,0,1-.51-2.19V9.27a1,1,0,0,0-1-1h0a1,1,0,0,0-1,1V20.18a5,5,0,0,0,1.17,3.28,3.76,3.76,0,0,0,3,1.44,5.07,5.07,0,0,0,1.48-.23,4.23,4.23,0,0,0,1.75-1q.16-.18.33-.39l.06-.07a37.55,37.55,0,0,0,2.76-5.84h0c.07-.23.13-.27.13-.27l.1.2h0c.24.74,2.28,5.09,2.63,5.61a5,5,0,0,0,.63.76,4.21,4.21,0,0,0,2,1.08,5.17,5.17,0,0,0,1.19.15,3.78,3.78,0,0,0,3-1.44A5,5,0,0,0,75,20.18v-11a1,1,0,0,0-1-1Z"/><path d="M111.77,16.81a7.92,7.92,0,0,0-.87-4,8.64,8.64,0,0,0-3-3.43,8,8,0,0,0-6.27-1.19,8.21,8.21,0,0,0-5.34,3.58A8.28,8.28,0,0,0,95,18.21a8.21,8.21,0,0,0,3.61,5.4,8.4,8.4,0,0,0,4.73,1.46,9.46,9.46,0,0,0,1.58-.14,7.77,7.77,0,0,0,4.81-2.75h0l.39-.55a.25.25,0,0,0,0-.07,1,1,0,0,0,.16-.52,1.08,1.08,0,0,0-.46-.95l-.07-.06a1.1,1.1,0,0,0-1.12-.09,1,1,0,0,0-.31.22l-.12.13-.33.46a5.7,5.7,0,0,1-3.44,2,6,6,0,0,1-4.61-.95,6.16,6.16,0,0,1-2.76-4.47l.13-.15,14.54-.05ZM97.21,15a6.16,6.16,0,0,1,.58-1.47,6.57,6.57,0,0,1,5.13-3.4l.56,0a5.49,5.49,0,0,1,3.14,1A5.92,5.92,0,0,1,109.34,15a.13.13,0,0,1-.13.15H97.34A.13.13,0,0,1,97.21,15Z"/><path class="cls-1" d="M21.24,31.3h-.38V29.69a2,2,0,0,0-.43-1.37,1.4,1.4,0,0,0-1.15-.52,1.43,1.43,0,0,0-1.1.49,1.67,1.67,0,0,0,0,2.29,1.44,1.44,0,0,0,1.12.47,1.72,1.72,0,0,0,.58-.09,1.59,1.59,0,0,0,.51-.32l.24-.23v.44l-.26.2a1.7,1.7,0,0,1-.5.26,1.89,1.89,0,0,1-.6.09,1.8,1.8,0,0,1-1.37-.6,2,2,0,0,1-.56-1.43A1.77,1.77,0,0,1,17.9,28a1.87,1.87,0,0,1,1.36-.55,1.92,1.92,0,0,1,1.41.57,2,2,0,0,1,.57,1.47Z"/><path class="cls-1" d="M25.77,29.35a2,2,0,0,1-.56,1.45,1.87,1.87,0,0,1-1.39.59,1.94,1.94,0,0,1-1.4-.57,1.82,1.82,0,0,1-.59-1.37,1.91,1.91,0,0,1,.57-1.4,2,2,0,0,1,1.4-.56,2.1,2.1,0,0,1,.64.11,2.23,2.23,0,0,1,.49.24l.21.18v.42l-.26-.23a1.8,1.8,0,0,0-.43-.25,1.42,1.42,0,0,0-.61-.14,1.52,1.52,0,0,0-1.14.47,1.55,1.55,0,0,0-.48,1.16,1.58,1.58,0,0,0,.45,1.14,1.62,1.62,0,0,0,1.2.45A1.36,1.36,0,0,0,25,30.53a1.85,1.85,0,0,0,.43-1.24V25.67h.38Z"/><path class="cls-1" d="M29.9,27.49,28.56,31a.63.63,0,0,1-.16.25.4.4,0,0,1-.26.1.36.36,0,0,1-.24-.09.46.46,0,0,1-.16-.21l-1.41-3.56h.4l1.35,3.4c0,.06,0,.09.06.09s.08,0,.09-.1l1.29-3.39Z"/><path class="cls-1" d="M31,26.46a.25.25,0,0,1-.07.19.28.28,0,0,1-.19.07.26.26,0,0,1-.26-.26.26.26,0,0,1,.08-.19.28.28,0,0,1,.19-.07.24.24,0,0,1,.18.07A.22.22,0,0,1,31,26.46Zm0,4.84h-.4V27.49h.4Z"/><path class="cls-1" d="M34.62,30.39a.8.8,0,0,1-.31.65,1.07,1.07,0,0,1-.73.26h-1.9V31h1.74a1.09,1.09,0,0,0,.57-.14.53.53,0,0,0,.28-.47V30.3a.75.75,0,0,0-.56-.59,5,5,0,0,0-.57-.18l-.41-.09a1.77,1.77,0,0,1-.78-.36.87.87,0,0,1-.27-.68.81.81,0,0,1,.3-.64,1,1,0,0,1,.69-.27h1.68v.33H32.69a.7.7,0,0,0-.4.12.54.54,0,0,0-.22.34.5.5,0,0,0,0,.16.56.56,0,0,0,.29.47,1.72,1.72,0,0,0,.6.22l.58.14a1.65,1.65,0,0,1,.84.41A1,1,0,0,1,34.62,30.39Z"/><path class="cls-1" d="M38.85,29.47a1.73,1.73,0,0,1-.59,1.33,1.93,1.93,0,0,1-1.38.55,1.95,1.95,0,0,1-1.94-1.94A1.84,1.84,0,0,1,35.53,28a1.92,1.92,0,0,1,1.39-.57,1.82,1.82,0,0,1,1.37.59A2,2,0,0,1,38.85,29.47Zm-.38-.06A1.53,1.53,0,0,0,38,28.29a1.56,1.56,0,0,0-2.23,0,1.58,1.58,0,0,0-.46,1.14,1.61,1.61,0,0,0,.44,1.12,1.39,1.39,0,0,0,1.07.48A1.6,1.6,0,0,0,38,30.55,1.54,1.54,0,0,0,38.47,29.41Z"/><path class="cls-1" d="M41.46,27.86l-.15,0h-.15a1,1,0,0,0-.36.06,1.07,1.07,0,0,0-.34.19,1.24,1.24,0,0,0-.4.62,2,2,0,0,0-.1.57v2h-.37V27.49H40v.66a1.37,1.37,0,0,1,.52-.5,1.49,1.49,0,0,1,.73-.16h.13l.12,0Z"/><path class="cls-1" d="M43.44,25.94l-1.5,1.15h-.49L43,25.94Zm-.93,5.36h-.39V27.49h.39Z"/><path class="cls-1" d="M47.26,31.3h-.37V29.69a2.1,2.1,0,0,0-.43-1.37,1.52,1.52,0,0,0-2.26,0,1.62,1.62,0,0,0-.45,1.15,1.57,1.57,0,0,0,.44,1.14,1.46,1.46,0,0,0,1.12.47,1.68,1.68,0,0,0,.58-.09,1.59,1.59,0,0,0,.51-.32l.24-.23v.44l-.26.2a1.77,1.77,0,0,1-.49.26,1.93,1.93,0,0,1-.6.09,1.8,1.8,0,0,1-1.38-.6,2,2,0,0,1-.55-1.43A1.76,1.76,0,0,1,43.92,28a1.89,1.89,0,0,1,1.36-.55,1.92,1.92,0,0,1,1.41.57,2,2,0,0,1,.57,1.47Z"/><path class="cls-1" d="M53.7,29.47a1.73,1.73,0,0,1-.59,1.33,1.93,1.93,0,0,1-1.38.55,1.95,1.95,0,0,1-1.94-1.94A1.84,1.84,0,0,1,50.38,28a1.92,1.92,0,0,1,1.39-.57,1.82,1.82,0,0,1,1.37.59A2,2,0,0,1,53.7,29.47Zm-.38-.06a1.53,1.53,0,0,0-.46-1.12,1.56,1.56,0,0,0-2.23,0,1.58,1.58,0,0,0-.46,1.14,1.61,1.61,0,0,0,.44,1.12,1.39,1.39,0,0,0,1.07.48,1.6,1.6,0,0,0,1.16-.48A1.54,1.54,0,0,0,53.32,29.41Z"/><path class="cls-1" d="M57.43,31.3h-.38V29.2a1.39,1.39,0,0,0-.37-1,1.13,1.13,0,0,0-.85-.34,1.22,1.22,0,0,0-.86.33,1.16,1.16,0,0,0-.35.86V31.3h-.38V29.09a1.56,1.56,0,0,1,1.59-1.6A1.48,1.48,0,0,1,57,28a1.88,1.88,0,0,1,.45,1.29Z"/><path class="cls-1" d="M58.82,31.3h-.36V25.67h.36Z"/><path class="cls-1" d="M60.51,26.46a.22.22,0,0,1-.08.19.26.26,0,0,1-.44-.19.26.26,0,0,1,.08-.19.25.25,0,0,1,.19-.07.24.24,0,0,1,.18.07A.22.22,0,0,1,60.51,26.46Zm0,4.84h-.39V27.49h.39Z"/><path class="cls-1" d="M64.65,31.3h-.38V29.2a1.39,1.39,0,0,0-.37-1,1.12,1.12,0,0,0-.85-.34,1.19,1.19,0,0,0-.85.33,1.13,1.13,0,0,0-.36.86V31.3h-.37V29.09a1.54,1.54,0,0,1,.45-1.15,1.55,1.55,0,0,1,1.13-.45,1.48,1.48,0,0,1,1.15.5,1.88,1.88,0,0,1,.45,1.29Z"/><path class="cls-1" d="M69.13,29.45a1.82,1.82,0,0,1-.58,1.35,1.93,1.93,0,0,1-1.38.55,1.88,1.88,0,0,1-1.38-.57,1.91,1.91,0,0,1-.57-1.4A1.85,1.85,0,0,1,65.79,28a1.82,1.82,0,0,1,1.34-.58,2,2,0,0,1,1,.28,1.77,1.77,0,0,1,.68.65l-2.68,1.79L66,29.9l2.37-1.58a1.51,1.51,0,0,0-1.21-.55,1.46,1.46,0,0,0-1.09.47,1.61,1.61,0,0,0-.44,1.12,1.59,1.59,0,0,0,.47,1.16,1.59,1.59,0,0,0,2.25,0,1.5,1.5,0,0,0,.45-1.1Z"/><path class="cls-1" d="M75.4,29.39a1.94,1.94,0,0,1-.56,1.4,1.85,1.85,0,0,1-1.36.57,2.11,2.11,0,0,1-.65-.11,1.88,1.88,0,0,1-.49-.23l-.24-.18v-.46l.3.25a1.84,1.84,0,0,0,.45.26,1.43,1.43,0,0,0,.59.13,1.55,1.55,0,0,0,1.12-.45A1.51,1.51,0,0,0,75,29.43a1.62,1.62,0,0,0-.44-1.15,1.56,1.56,0,0,0-1.19-.48,1.36,1.36,0,0,0-1.09.53,2,2,0,0,0-.43,1.24V33.2h-.38V29.53a2,2,0,0,1,.57-1.46,1.95,1.95,0,0,1,3.34,1.32Z"/><path class="cls-1" d="M79.53,31.3h-.38V29.69a2,2,0,0,0-.43-1.37,1.42,1.42,0,0,0-1.16-.52,1.45,1.45,0,0,0-1.1.49,1.7,1.7,0,0,0,0,2.29,1.46,1.46,0,0,0,1.12.47,1.78,1.78,0,0,0,.59-.09,1.56,1.56,0,0,0,.5-.32l.25-.23v.44l-.27.2a1.64,1.64,0,0,1-.49.26,1.89,1.89,0,0,1-.6.09,1.78,1.78,0,0,1-1.37-.6,2,2,0,0,1-.56-1.43A1.77,1.77,0,0,1,76.19,28a1.87,1.87,0,0,1,1.36-.55,1.92,1.92,0,0,1,1.41.57,2,2,0,0,1,.57,1.47Z"/><path class="cls-1" d="M82.48,27.86l-.15,0h-.15a1,1,0,0,0-.35.06,1.11,1.11,0,0,0-.35.19,1.23,1.23,0,0,0-.39.62,1.71,1.71,0,0,0-.1.57v2h-.38V27.49H81v.66a1.28,1.28,0,0,1,.51-.5,1.51,1.51,0,0,1,.73-.16h.14l.11,0Z"/><path class="cls-1" d="M86.43,31.3h-.37V29.69a2.1,2.1,0,0,0-.43-1.37,1.52,1.52,0,0,0-2.26,0,1.7,1.7,0,0,0,0,2.29,1.46,1.46,0,0,0,1.12.47,1.78,1.78,0,0,0,.59-.09,1.67,1.67,0,0,0,.5-.32l.24-.23v.44l-.26.2a1.77,1.77,0,0,1-.49.26,1.89,1.89,0,0,1-.6.09,1.8,1.8,0,0,1-1.38-.6,2,2,0,0,1-.55-1.43A1.77,1.77,0,0,1,83.1,28a1.85,1.85,0,0,1,1.35-.55,1.92,1.92,0,0,1,1.41.57,2,2,0,0,1,.57,1.47Z"/><path class="cls-1" d="M93.09,29.39a1.9,1.9,0,0,1-.56,1.4,1.82,1.82,0,0,1-1.36.57,2.05,2.05,0,0,1-.64-.11A1.73,1.73,0,0,1,90,31l-.24-.18v-.46l.3.25a1.67,1.67,0,0,0,.45.26,1.4,1.4,0,0,0,.59.13,1.55,1.55,0,0,0,1.58-1.59,1.62,1.62,0,0,0-.44-1.15,1.56,1.56,0,0,0-1.19-.48,1.36,1.36,0,0,0-1.09.53,1.91,1.91,0,0,0-.43,1.24V33.2h-.38V29.53a2,2,0,0,1,.57-1.46,1.94,1.94,0,0,1,3.33,1.32Z"/><path class="cls-1" d="M96.74,29.86a1.47,1.47,0,0,1-.5,1.13,1.78,1.78,0,0,1-.5.29,2.42,2.42,0,0,1-.36.11V33.2H95V31.39a1.63,1.63,0,0,1-.78-.3,1.46,1.46,0,0,1-.51-.67,2.49,2.49,0,0,1-.12-.82V27.49H94v2.25a1.26,1.26,0,0,0,.34,1,1.14,1.14,0,0,0,.85.31,1.17,1.17,0,0,0,.84-.33,1.21,1.21,0,0,0,.34-.89v-2.3h.39Z"/><path class="cls-1" d="M102.73,31.3h-.36V29a1.38,1.38,0,0,0-.28-.91,1,1,0,0,0-.77-.34.91.91,0,0,0-.71.33,1.08,1.08,0,0,0-.28.76V31.3H100V29a1.38,1.38,0,0,0-.27-.88.92.92,0,0,0-.75-.35,1,1,0,0,0-.71.29,1,1,0,0,0-.29.74V31.3h-.36V28.81a1.3,1.3,0,0,1,.38-1,1.34,1.34,0,0,1,1-.36,1.49,1.49,0,0,1,1.23.72,1.39,1.39,0,0,1,.47-.5,1.29,1.29,0,0,1,.72-.22,1.41,1.41,0,0,1,1,.38,1.26,1.26,0,0,1,.42,1Z"/><path class="cls-1" d="M107.19,29.45a1.79,1.79,0,0,1-.58,1.35,1.9,1.9,0,0,1-1.38.55,2,2,0,0,1-2-2,2,2,0,0,1,1.92-1.94,2.06,2.06,0,0,1,1,.28,1.75,1.75,0,0,1,.67.65l-2.67,1.79-.2-.26,2.37-1.58a1.55,1.55,0,0,0-1.22-.55,1.45,1.45,0,0,0-1.08.47,1.58,1.58,0,0,0-.45,1.12,1.63,1.63,0,0,0,.47,1.16,1.56,1.56,0,0,0,1.14.48,1.54,1.54,0,0,0,1.56-1.55Z"/><path class="cls-1" d="M110.4,30.39a.8.8,0,0,1-.31.65,1.07,1.07,0,0,1-.73.26h-1.9V31h1.74a1.09,1.09,0,0,0,.57-.14.52.52,0,0,0,.28-.47V30.3a.75.75,0,0,0-.56-.59,5,5,0,0,0-.57-.18l-.41-.09a1.89,1.89,0,0,1-.78-.36.87.87,0,0,1-.27-.68.81.81,0,0,1,.3-.64,1,1,0,0,1,.69-.27h1.68v.33h-1.66a.65.65,0,0,0-.39.12.55.55,0,0,0-.23.34.47.47,0,0,0,0,.16.55.55,0,0,0,.28.47,1.72,1.72,0,0,0,.6.22l.58.14a1.65,1.65,0,0,1,.84.41A1,1,0,0,1,110.4,30.39Z"/><path class="cls-2" d="M2.5,22.46h9.28V8.73L2.57,22.37Z"/><path d="M12,4.39h0l0,0,0,0Z"/><path d="M11.9,4.46l0,0,0-.07Z"/><path d="M15.68,22.46H14.07V5.17a1.15,1.15,0,0,0-.22-.78,1.23,1.23,0,0,0-.31-.29A1.18,1.18,0,0,0,12,4.39l0,0,0,.07-.1.15L.62,21.22l-.38.62A2,2,0,0,0,0,23.11,1.7,1.7,0,0,0,1,24.4a3.43,3.43,0,0,0,1.65.37h9.17v5.28a1.15,1.15,0,0,0,2.29,0V24.69h1.61a1.12,1.12,0,1,0,0-2.23Zm-3.9,0H2.5l.07-.09L11.78,8.73Z"/><circle class="cls-3" cx="77.88" cy="3.34" r="3.34"/></g></g></svg>