<?xml version="1.0" encoding="utf-8"?>
<!-- Generator: Adobe Illustrator 15.1.0, SVG Export Plug-In . SVG Version: 6.00 Build 0)  -->
<!DOCTYPE svg PUBLIC "-//W3C//DTD SVG 1.1//EN" "http://www.w3.org/Graphics/SVG/1.1/DTD/svg11.dtd">
<svg version="1.1" id="Layer_1" xmlns="http://www.w3.org/2000/svg" xmlns:xlink="http://www.w3.org/1999/xlink" x="0px" y="0px"
	 width="273px" height="273px" viewBox="0 0 273 273" enable-background="new 0 0 273 273" xml:space="preserve">
<g>
	<path fill-rule="evenodd" clip-rule="evenodd" d="M83.407,47c9.691,0,19.383,0,29.074,0c7.262,1.083,13.502,3.188,18.576,6.461
		c28.94,0,57.878,0,86.819,0c0.942,65.956,0.135,133.662,0.404,200.291c-17.768,0-27.051,0-44.818,0c0-13.326,0-42.958,0-56.284
		c-8.749,0-34.403,0-43.152,0c-0.942,12.519-0.135,43.093-0.404,56.284c-17.902,0-27.385,0-45.287,0c0-33.517,0-67.033,0-100.549
		c-4.609,0.167-7.679-1.205-11.307-2.02c-14.989-6.116-26.231-17.535-28.267-35.535c-0.722-6.383-0.404-13.444-0.404-20.998
		c0-7.064,0.492-13.437,2.423-18.979c0.793-2.277,2.026-5.148,3.23-7.269c0.271-0.477,0.856-0.67,1.211-1.211
		c0.371-0.564,0.419-1.471,0.808-2.019c0.123-0.172,0.653-0.237,0.808-0.404c0.296-0.318,0.127-0.848,0.404-1.211
		c0.139-0.182,0.644-0.227,0.808-0.404c0.285-0.306,0.126-0.878,0.404-1.211c1.182-1.418,3.41-3.481,4.442-4.442
		c0.306-0.285,0.879-0.126,1.211-0.404c1.063-0.886,1.811-1.717,2.827-2.423c1.151-0.799,2.277-1.266,3.635-2.019
		c0.504-0.28,0.775-0.983,1.211-1.211c0.619-0.325,1.443-0.559,2.019-0.808C74.049,48.92,79.392,47.78,83.407,47z M68.062,57.499
		c-3.043,2.516-6.271,4.749-8.884,7.672c-2.658,2.975-4.309,6.563-6.461,10.095c-0.78,3.124-1.657,6.15-2.423,9.288
		c0.064,9.021-0.087,17.556,0,25.844c0.059,5.582,0.694,9.707,2.019,13.326c4.993,13.633,16.357,22.532,31.901,24.633
		c9.557,0,19.114,0,28.67,0c4.843-0.945,9.178-2.398,13.326-4.038c7.228-4.443,14.193-11.171,17.364-19.383
		c0.261-0.677,0.627-1.467,0.808-2.02c2.051-6.31,1.615-14.454,1.615-22.613c0-6.047,0.194-12.169-0.404-18.172
		c-2.812-10.071-8.694-19.352-16.557-23.825c-3.758-2.138-7.895-4.362-12.114-5.25c-9.015-1.896-19.784-0.234-31.497-0.808
		c-0.247,0.022-0.479,0.06-0.404,0.404C77.672,52.572,73.204,55.373,68.062,57.499z M151.248,113.628c4.577,0,9.153,0,13.729,0
		c0-13.326,0-26.651,0-39.978c-5.519,0-11.038,0-16.556,0C152.538,83.609,151.937,100.182,151.248,113.628z M178.707,73.651
		c-0.942,12.519-0.135,26.786-0.404,39.978c8.884,0,17.768,0,26.652,0c0-13.326,0-26.651,0-39.978
		C196.205,73.651,187.456,73.651,178.707,73.651z M138.729,141.491c-0.942,12.115-0.135,25.979-0.404,38.766
		c8.884,0,17.768,0,26.651,0c0-13.19,0-26.382,0-39.573c-7.546-0.934-16.819-0.141-25.036-0.403
		C139.359,140.506,138.955,140.91,138.729,141.491z M178.707,140.28c-0.942,12.518-0.135,26.786-0.404,39.977
		c8.884,0,17.768,0,26.652,0c0-13.325,0-26.651,0-39.977C196.205,140.28,187.456,140.28,178.707,140.28z M98.348,153.605
		c-0.935,8.084-0.141,17.896-0.404,26.651c8.884,0,17.768,0,26.651,0c0-9.825,0-19.651,0-29.478c-0.269,0-0.538,0-0.808,0
		C117.549,153.962,107.903,153.739,98.348,153.605z"/>
	<path fill-rule="evenodd" clip-rule="evenodd" fill="#FFFFFF" d="M85.022,52.653c-0.075-0.344,0.157-0.381,0.404-0.404
		c11.713,0.574,22.482-1.089,31.497,0.808c4.22,0.888,8.356,3.112,12.114,5.25c7.863,4.473,13.745,13.753,16.557,23.825
		c0.598,6.002,0.404,12.125,0.404,18.172c0,8.159,0.436,16.304-1.615,22.613c-0.18,0.552-0.546,1.342-0.808,2.02
		c-3.171,8.212-10.137,14.939-17.364,19.383c-4.147,1.64-8.483,3.093-13.326,4.038c-9.557,0-19.114,0-28.67,0
		c-15.544-2.101-26.909-11-31.901-24.633c-1.325-3.619-1.96-7.744-2.019-13.326c-0.087-8.288,0.064-16.823,0-25.844
		c0.766-3.138,1.643-6.164,2.423-9.288c2.152-3.532,3.803-7.121,6.461-10.095c2.613-2.924,5.841-5.157,8.884-7.672
		C73.204,55.373,77.672,52.572,85.022,52.653z M125.403,75.67c-7.733,7.146-18.271,18.271-27.055,27.056
		c-0.919,0.919-8.371,8.502-8.884,8.48c-0.247-0.01-0.886-1.289-2.019-2.423c-5.821-5.821-11.39-10.798-16.152-16.152
		c-1.153,0.283-2.034,1.254-2.827,2.019c-1.73,1.667-3.378,3.323-4.846,4.846c-0.765,0.793-1.736,1.674-2.02,2.827
		c8.34,7.751,16.503,16.502,24.229,24.229c1.169,1.169,2.461,2.532,4.038,3.23c13.932-14.063,28.921-28.141,42.4-41.997
		c0.893-0.917,2.007-1.934,2.423-3.23C131.358,81.829,128.736,78.395,125.403,75.67z"/>
	<path fill-rule="evenodd" clip-rule="evenodd" fill="#FFFFFF" d="M148.421,73.651c5.519,0,11.038,0,16.556,0
		c0,13.326,0,26.652,0,39.978c-4.577,0-9.153,0-13.729,0C151.937,100.182,152.538,83.609,148.421,73.651z"/>
	<path fill-rule="evenodd" clip-rule="evenodd" fill="#FFFFFF" d="M204.955,73.651c0,13.326,0,26.652,0,39.978
		c-8.884,0-17.768,0-26.652,0c0.269-13.191-0.538-27.459,0.404-39.978C187.456,73.651,196.205,73.651,204.955,73.651z"/>
	<path fill-rule="evenodd" clip-rule="evenodd" d="M135.862,72.82C135.346,74.428,136.968,71.683,135.862,72.82
		c-16.708,17.176-51.501,60.544-51.501,60.544c-1.954-0.865-3.556-2.556-5.006-4.005c-9.576-9.578-12.389-13.04-22.729-22.648l0,0
		c1.819-1.888,9.075-10.556,11.219-12.622l0,0c5.904,6.637,6.297,6.029,13.512,13.245c1.405,1.405,2.197,2.99,2.502,3.003
		c0.637,0.027,13.465-11.135,14.604-12.274l34.593-28.048C137.188,73.394,131.731,69.442,135.862,72.82z"/>
	<path fill-rule="evenodd" clip-rule="evenodd" fill="#FFFFFF" d="M139.941,140.28c8.217,0.263,17.49-0.53,25.036,0.403
		c0,13.191,0,26.383,0,39.573c-8.884,0-17.768,0-26.651,0c0.269-12.787-0.539-26.65,0.404-38.766
		C138.955,140.91,139.359,140.506,139.941,140.28z"/>
	<path fill-rule="evenodd" clip-rule="evenodd" fill="#FFFFFF" d="M204.955,140.28c0,13.325,0,26.651,0,39.977
		c-8.884,0-17.768,0-26.652,0c0.269-13.19-0.538-27.459,0.404-39.977C187.456,140.28,196.205,140.28,204.955,140.28z"/>
	<path fill-rule="evenodd" clip-rule="evenodd" fill="#FFFFFF" d="M123.788,150.779c0.27,0,0.539,0,0.808,0
		c0,9.826,0,19.652,0,29.478c-8.884,0-17.768,0-26.651,0c0.263-8.755-0.531-18.567,0.404-26.651
		C107.903,153.739,117.549,153.962,123.788,150.779z"/>
</g>
</svg>
