<?xml version="1.0" encoding="utf-8"?>
<!-- Generator: Adobe Illustrator 15.1.0, SVG Export Plug-In . SVG Version: 6.00 Build 0)  -->
<!DOCTYPE svg PUBLIC "-//W3C//DTD SVG 1.1//EN" "http://www.w3.org/Graphics/SVG/1.1/DTD/svg11.dtd">
<svg version="1.1" id="Layer_1" xmlns="http://www.w3.org/2000/svg" xmlns:xlink="http://www.w3.org/1999/xlink" x="0px" y="0px"
	 width="273px" height="273px" viewBox="0 0 273 273" enable-background="new 0 0 273 273" xml:space="preserve">
<g>
	<path fill-rule="evenodd" clip-rule="evenodd" d="M201.773,97.13c0,4.086,0,8.172,0,12.257c-14.024,0-28.049,0-42.073,0
		c0.219-3.976-0.44-8.833,0.331-12.257C173.945,97.13,187.859,97.13,201.773,97.13z"/>
	<path fill-rule="evenodd" clip-rule="evenodd" d="M160.031,124.959c25.178,0,50.356,0,75.535,0c0,4.085,0,8.171,0,12.258
		c-25.289,0-50.577,0-75.866,0c0-3.754,0-7.509,0-11.264C159.67,125.481,159.645,125.014,160.031,124.959z"/>
</g>
<polygon fill-rule="evenodd" clip-rule="evenodd" points="27.23,231.435 17.921,213.748 51.433,200.715 65.346,223.018 
	67.321,215.556 56.129,194.269 51.521,192.075 11.581,208.314 9.167,214.239 23.87,239.695 "/>
<path fill-rule="evenodd" clip-rule="evenodd" d="M262.4,87.522c0-6.451,1.312-19.446-0.994-22.197
	c-2.627-3.132-9.913-2.318-16.234-2.318c-36.27,0-69.618,0-104.688,0c-5.921,0-12.553-0.974-17.558,0
	c-6.125,1.19-4.97,7.421-4.97,15.239c0,11.787,0,25.925,0,36.906c-1.754-0.355-3.568-0.544-5.427-0.544
	c-15.028,0-27.212,12.184-27.212,27.212c0,15.029,12.184,27.213,27.212,27.213s27.212-12.184,27.212-27.213
	c0-8.433-3.837-15.966-9.858-20.958c0-15.308,0-30.62,0-45.93c40.196,0,80.393,0,120.59,0c0,54.332,0,108.665,0,162.996
	c-30.479,0-60.958,0-91.437,0c0-10.049,0-20.098,0-30.146c4.877,1.409,8.993,2.538,13.914,3.974
	c3.651,1.066,12.515,4.421,17.044,3.646c3.753-0.643,6.141-6.993,8.615-10.932c6.042-9.626,6.666-13.314,12.44-22.537
	c2.154-3.441,5.392-10.698,6.625-14.567c1.287-4.038,2.933-8.976-3.65-14.571c-3.162-2.688-10.205-1.976-14.239,1.649
	c-2.415,2.169-4.878,3.938-6.626,6.958c-5.315,9.182-9.699,18.051-15.239,25.84c-3.782-1.712-7.876-3.224-11.927-4.97
	c-3.91-1.683-7.901-4.398-11.926-4.97c-7.928-1.121-17.15-0.516-25.591-0.179c-1.171-0.078-2.539-0.155-4.063-0.213
	c-1.033-0.17-2.318-0.164-3.329-0.087c-9.22-0.134-21.774,0.613-29.403,4.937c0,0-8.411,4.027-10.46,12.438L70.051,227.71
	c0,0,0.102,1.835-1.862,1.863L38.4,232.364c0,0-8.604-0.569-10.58,9.965c0,0-1.103,8.522,7.788,10.516
	c0,0,38.774,0.915,43.125,0.457c0,0,6.583,0.879,11.85-5.925l15.773-30.836c0,0,0.467-3.399,3.54-2.521c0,0,2.554,0.215,2.045,2.521
	l-14.774,31.713c0,0-0.22,2.634,0.659,2.634c0.514,0,20.627-0.564,37.212-1.031c42.769,0,59.182,0,106.822,0
	c7.1,0,17.261,0.922,19.547-2.32c2.204-3.126,0.994-15.188,0.994-21.864C262.4,178.359,262.4,134.617,262.4,87.522z"/>
</svg>
