<?xml version="1.0" encoding="utf-8"?>
<!-- Generator: Adobe Illustrator 15.1.0, SVG Export Plug-In . SVG Version: 6.00 Build 0)  -->
<!DOCTYPE svg PUBLIC "-//W3C//DTD SVG 1.1//EN" "http://www.w3.org/Graphics/SVG/1.1/DTD/svg11.dtd">
<svg version="1.1" id="Layer_1" xmlns="http://www.w3.org/2000/svg" xmlns:xlink="http://www.w3.org/1999/xlink" x="0px" y="0px"
	 width="792px" height="612px" viewBox="0 0 792 612" enable-background="new 0 0 792 612" xml:space="preserve">
<g>
	<path fill="#070707" stroke="#000000" stroke-miterlimit="10" d="M791.511,337.984l-0.573-33.062l-170.676-1.338l6.115-72.627
		h-6.115l3.82-22.936l-14.525-0.764l-1.017,24.718l-33.102,0.657l-11.749,0.619l-0.015-0.385l-6.613,0.131l8.156,69.059
		l-150.606-0.765l0.381-16.056L338.924,286v-43.576l136.082-1.78l1.019-234.448L126.393,8.235l1.528,234.189l135.318,1.528
		l0.764,41.282L187.935,286l-0.383,17.584l-187.556,2.04l-0.257,34.658l73.9-0.713l-0.004-0.818h0.014l0.504,259.424l37.715-0.257
		l1.502-258.622l279.835-1.311l1.529,258.404l255.344,0.766v8.026c61.16,0,63.071-0.383,63.071-0.383l-0.382-266.813H791.511z
		 M78.993,339.516l-0.511-0.58l12.062,0.467L78.993,339.516z M148.562,222.546v-200.3l307.33,1.53l3.06,197.242L148.562,222.546z
		 M438.31,571.16V337.221h243.112l1.91,233.939H438.31z"/>
	<polygon fill="#070707" stroke="#000000" stroke-miterlimit="10" points="578.214,232.484 576.685,196.553 562.159,196.553 
		563.675,232.864 575.438,232.631 	"/>
	<polygon fill="#070707" stroke="#000000" stroke-miterlimit="10" points="569.715,174.892 562.034,174.892 562.034,185.212 
		570.572,183.738 	"/>
	<polygon fill="#070707" stroke="#000000" stroke-miterlimit="10" points="624.849,187.379 614.909,187.379 612.616,196.553 
		624.082,197.317 	"/>
	<path fill="#070707" stroke="#000000" stroke-miterlimit="10" d="M669.955,444.252v-96.329h-218.65l2.295,97.858L669.955,444.252z
		 M588.917,373.154l-3.06,14.016l-49.946-0.509l-2.804-13.507H588.917z"/>
	<path fill="#070707" stroke="#000000" stroke-miterlimit="10" d="M452.071,460.307v98.622h218.647l-1.53-99.387L452.071,460.307z
		 M581.783,494.2h-48.421l-3.058-14.271l56.318-0.508L581.783,494.2z"/>
</g>
</svg>
