<?xml version="1.0" encoding="utf-8"?>
<!-- Generator: Adobe Illustrator 15.1.0, SVG Export Plug-In . SVG Version: 6.00 Build 0)  -->
<!DOCTYPE svg PUBLIC "-//W3C//DTD SVG 1.1//EN" "http://www.w3.org/Graphics/SVG/1.1/DTD/svg11.dtd">
<svg version="1.1" id="Layer_1" xmlns="http://www.w3.org/2000/svg" xmlns:xlink="http://www.w3.org/1999/xlink" x="0px" y="0px"
	 width="273px" height="273px" viewBox="0 0 273 273" enable-background="new 0 0 273 273" xml:space="preserve">
<path fill-rule="evenodd" clip-rule="evenodd" d="M135.254,240.5l22.866,0.403c1.504-0.597,1.974-3.903,1.974-3.903l-0.631-54.191
	l14.095-22.291L174.5,117.5c-0.497-16-19.872-19.5-19.872-19.5c-3.478-1.5-1.878,0.37-1.878,0.37l-17.873,39.974L116.89,98.37
	c0,0,1.61-1.87-1.89-0.37c0,0-19.5,3.5-20,19.5l0.949,43.018l14.186,22.291L109.5,237c0,0,0.473,3.307,1.986,3.903L134.5,240.5"/>
<circle fill-rule="evenodd" clip-rule="evenodd" cx="134.5" cy="68" r="23.5"/>
<path fill-rule="evenodd" clip-rule="evenodd" d="M212.815,240.584l18.072,0.319c1.188-0.472,1.56-3.085,1.56-3.085l-0.5-42.83
	l11.14-17.619l0.746-33.998c-0.393-12.646-15.706-15.413-15.706-15.413c-2.749-1.186-1.484,0.292-1.484,0.292l-14.126,31.593
	l-14.216-31.593c0,0,1.272-1.478-1.494-0.292c0,0-15.412,2.766-15.807,15.413l0.75,33.998l11.212,17.619l-0.502,42.83
	c0,0,0.374,2.613,1.57,3.085l18.189-0.319"/>
<circle fill-rule="evenodd" clip-rule="evenodd" cx="212.219" cy="104.248" r="18.573"/>
<path fill-rule="evenodd" clip-rule="evenodd" fill="none" stroke="#000000" stroke-width="5" stroke-linecap="round" stroke-miterlimit="10" d="
	M59.196,67.211c14.61-26.919,43.122-45.197,75.903-45.197S196.39,40.29,211,67.208"/>
<path fill-rule="evenodd" clip-rule="evenodd" d="M58.148,240.584l18.072,0.319c1.188-0.472,1.56-3.085,1.56-3.085l-0.5-42.83
	l11.14-17.619l0.746-33.998c-0.393-12.646-15.706-15.413-15.706-15.413c-2.749-1.186-1.484,0.292-1.484,0.292l-14.126,31.593
	l-14.216-31.593c0,0,1.272-1.478-1.494-0.292c0,0-15.412,2.766-15.807,15.413l0.75,33.998l11.212,17.619l-0.502,42.83
	c0,0,0.374,2.613,1.57,3.085l18.189-0.319"/>
<circle fill-rule="evenodd" clip-rule="evenodd" cx="57.553" cy="104.248" r="18.573"/>
<polygon fill-rule="evenodd" clip-rule="evenodd" points="136.684,106.232 139.111,98.278 139.111,98.278 135.667,96.875 
	134.818,96.84 133.979,96.875 129.912,98.278 129.912,98.278 132.688,106.232 130.688,119.732 133.866,124.687 134.818,126.171 
	134.818,126.171 134.818,126.171 135.896,124.252 138.434,119.732 "/>
<g>
	<path fill-rule="evenodd" clip-rule="evenodd" fill="#FFFFFF" d="M133.494,46.667c0.747,0,1.494,0,2.241,0c0,0.058,0,0.115,0,0.172
		c3.657,0.136,5.729,1.856,7.757,3.621c1.735,2.058,3.083,4.502,3.275,8.102c-0.02,3.447-1.254,5.55-2.413,7.585
		c-1.03,0.694-1.593,1.855-2.758,2.414c-0.169,0.405-0.863,0.286-0.862,0.862c-0.042,2.084,0.263,4.515-0.689,5.689
		c-1.077,0.913-3.432,0.689-5.517,0.689c-2.104,0-4.444,0.289-5.344-0.862c-0.975-1.036-0.333-3.689-0.517-5.517
		c-1.29-1-2.601-1.999-3.62-3.275c-1.522-1.907-2.607-4.463-2.586-7.413C122.508,52.099,127.7,47.329,133.494,46.667z
		 M142.803,64.078c0.734-1.159,1.44-2.938,1.552-4.482c0.405-5.596-4.14-11.07-10.861-10.516c-4.895,0.738-9.04,4.919-8.62,10.516
		c0.195,2.598,1.439,4.247,2.758,6.034c0.848,0.531,1.53,1.228,2.413,1.724c0.248,0.27,0.899,0.136,0.862,0.69
		c0,1.781,0,3.563,0,5.344c2.471,0,4.942,0,7.413,0c0-1.838,0-3.677,0-5.516C140.248,66.686,141.721,65.788,142.803,64.078z"/>
	<path fill-rule="evenodd" clip-rule="evenodd" fill="#FFFFFF" d="M139.528,78.042c-0.008,1.843-2.488,1.379-4.31,1.379
		c-1.926,0-4.088,0.225-5.172-0.345c-0.377-0.808-0.195-2.008,0.69-2.068c1.407,0,3.319,0,5,0
		C137.331,77.008,139.134,76.64,139.528,78.042z"/>
	<path fill-rule="evenodd" clip-rule="evenodd" fill="#FFFFFF" d="M136.425,85.455c-1.207,0-2.414,0-3.62,0c0-0.058,0-0.115,0-0.172
		c-0.708-0.039-1.066-0.428-1.379-0.862c-0.514-0.233,0.041-1.536-0.862-1.379c-0.532-0.272-0.845-0.764-0.689-1.724
		c0.659-1.084,3.065-0.69,4.999-0.69c1.899,0,4.519-0.456,4.655,1.207c-0.155,0.362-0.268,0.766-0.517,1.034
		c-0.459,0.115-1.066,0.083-0.862,0.862C137.876,84.608,137.25,85.131,136.425,85.455z"/>
</g>
<g>
	<path fill-rule="evenodd" clip-rule="evenodd" fill="#FFFFFF" d="M213.417,116.394c-1.197,0-2.395,0-3.591,0
		c-0.039-1.365-0.457-2.351-0.496-3.715c-1.073-0.413-2.312-0.661-3.096-1.362c-1.2,0.576-2.001,1.548-3.22,2.105
		c-0.362-0.05-0.401-0.424-0.62-0.619c-0.619-0.537-1.238-1.074-1.733-1.734c0.573-1.161,1.427-2.041,2.105-3.096
		c-0.522-0.922-1.05-1.839-1.238-3.097c-1.225-0.261-2.466-0.506-3.839-0.619c0-1.197,0-2.395,0-3.591
		c1.365-0.039,2.35-0.457,3.715-0.496c0.413-1.074,0.661-2.312,1.362-3.096c-0.575-1.2-1.548-2.001-2.105-3.22
		c0.369-0.416,0.722-0.847,1.115-1.238c0.403-0.404,0.828-0.852,1.362-1.115c1.075,0.659,1.955,1.512,3.097,2.105
		c0.784-0.702,2.022-0.949,3.096-1.362c0.119-1.326,0.324-2.567,0.62-3.715c1.156,0,2.312,0,3.468,0
		c0.039,1.365,0.457,2.351,0.496,3.715c1.074,0.413,2.312,0.661,3.096,1.362c1.2-0.576,2.001-1.548,3.22-2.105
		c0.416,0.369,0.847,0.722,1.238,1.115c0.404,0.403,0.852,0.828,1.115,1.362c-0.659,1.075-1.512,1.955-2.105,3.097
		c0.702,0.784,0.949,2.022,1.362,3.096c1.326,0.119,2.567,0.323,3.715,0.619c0,1.156,0,2.312,0,3.468
		c-1.365,0.039-2.35,0.457-3.715,0.496c-0.413,1.074-0.661,2.312-1.362,3.096c0.275,0.67,0.779,1.139,1.114,1.611
		c0.374,0.524,0.805,1.043,0.991,1.733c-0.38,0.363-0.796,0.69-1.115,1.115c-0.492,0.292-0.701,0.868-1.238,1.115
		c-1.219-0.557-2.021-1.529-3.22-2.105c-0.784,0.702-2.022,0.949-3.096,1.362C213.874,114.043,213.456,115.029,213.417,116.394z
		 M210.569,95.587c-1.21,0.069-1.885,0.674-2.849,0.99c-0.693,0.628-1.354,1.289-1.981,1.982c-0.521,1.253-1.197,2.354-1.115,4.211
		c0.07,1.499,0.658,2.479,1.115,3.591c0.628,0.693,1.289,1.354,1.981,1.982c1.144,0.466,2.138,1.082,3.716,1.115
		c1.071,0.082,1.696-0.285,2.6-0.372c0.426-0.318,0.922-0.564,1.486-0.743c0.693-0.628,1.354-1.289,1.982-1.982
		c0.521-1.253,1.197-2.354,1.115-4.211c-0.07-1.499-0.658-2.479-1.115-3.591c-1.428-1.71-3.5-3.436-6.688-2.972
		C210.734,95.587,210.651,95.587,210.569,95.587z"/>
</g>
<g>
	<path fill-rule="evenodd" clip-rule="evenodd" fill="#FFFFFF" d="M60.609,98.801c2.086-0.7,3.813-1.759,6.575-1.783
		c0.825,0.123,1.443,0.452,1.95,0.892c0.366,0.507,0.688,1.059,0.669,1.95c-0.163,0.997-0.655,1.984-0.725,3.232
		c-0.04,0.723,0.15,1.471,0.111,2.173c-0.076,1.396-0.987,2.197-2.229,2.508c-0.334,0-0.668,0-1.003,0
		c-0.1,0.007-0.117-0.068-0.223-0.056c-0.402-0.074-0.77-0.19-1.115-0.335c-0.325-0.136-0.663-0.311-0.947-0.501
		c-0.497-0.195-0.942-0.497-1.393-0.78c-0.075-0.047-0.144-0.061-0.223-0.111c-0.056-0.036-0.106-0.128-0.167-0.167
		c-0.084-0.056-0.204-0.063-0.278-0.111c-0.08-0.053-0.093-0.117-0.167-0.167c-0.393-0.268-0.861-0.533-1.226-0.892
		c-0.626-0.321-1.072-0.822-1.671-1.17c0.673,2.706,1.563,5.197,1.504,8.637c-0.168,1.113-0.665,1.897-1.393,2.452
		c-0.547,0.276-1.261,0.47-2.062,0.334c-0.79-0.265-1.484-0.796-2.563-1.115c-0.506-0.149-1.04-0.227-1.56-0.279
		c-0.751-0.075-1.381-0.105-1.895-0.39c-0.585-0.324-1.075-0.819-1.337-1.561c-0.088-0.524-0.122-1.372,0.056-1.95
		c0.077-0.25,0.25-0.515,0.391-0.78c0.018-0.035,0.026-0.128,0.056-0.167c0.017-0.023,0.098-0.033,0.111-0.056
		c0.052-0.088,0.056-0.191,0.111-0.278c0.121-0.192,0.327-0.434,0.501-0.669c0.452-0.607,0.932-1.214,1.393-1.727
		c0.5-0.557,1.05-1.05,1.56-1.561c0.539-0.539,1.038-1.086,1.56-1.56c-2.732,0.797-5.16,1.898-8.748,1.839
		c-0.788-0.196-1.445-0.523-1.95-1.003c-0.487-0.651-0.847-1.483-0.613-2.452c0.199-0.825,0.772-1.658,0.891-2.396
		c0.252-0.844,0.274-1.917,0.279-3.009c0.121,0.01,0.025-0.197,0.056-0.278c0.377-1.091,1.082-1.853,2.34-2.062
		c1.556-0.126,2.327,0.534,3.288,1.003c0.764,0.585,1.55,1.118,2.285,1.727c0.719,0.597,1.389,1.25,2.117,1.839
		c-0.645-2.29-1.565-4.304-1.56-7.244c0.246-1.537,1.004-2.562,2.507-2.841c0.304,0.012,0.67-0.039,0.892,0.056
		c0.856,0.231,1.622,0.622,2.563,0.835c0.913,0.207,1.92,0.227,3.12,0.223c1.188,0.335,1.978,1.069,2.229,2.34
		c0.109,1.316-0.303,2.112-0.724,2.898C63.003,95.958,61.804,97.378,60.609,98.801z"/>
	<path fill-rule="evenodd" clip-rule="evenodd" fill="#FFFFFF" d="M70.806,114.292c-0.424,0.542-0.762,1.169-1.616,1.282
		c-0.79-0.064-1.173-0.535-1.783-0.78c-0.439-0.396-0.989-0.683-1.393-1.114c-0.948-0.694-1.716-1.599-2.563-2.452
		c-0.686-0.891-1.428-1.754-2.062-2.73c-0.208-0.319-0.338-0.678-0.613-0.947c-0.107-0.301-0.252-0.565-0.446-0.78
		c-0.246-0.589-0.578-1.094-0.835-1.671c3.217,3.284,6.715,6.287,11.311,8.191C70.806,113.623,70.806,113.957,70.806,114.292z"/>
</g>
</svg>
